<svg width="40" height="40" viewBox="0 0 40 40" fill="none" xmlns="http://www.w3.org/2000/svg">
<g filter="url(#filter0_d_1_385)">
<circle cx="20" cy="18" r="16" fill="#FCFCFC"/>
</g>
<g clip-path="url(#clip0_1_385)">
<path d="M24.3751 7.01101C24.3284 6.95876 22.644 7.03163 21.1783 8.62251C19.7125 10.212 19.938 12.0353 19.971 12.082C20.004 12.1288 22.061 12.2016 23.3741 10.3523C24.6873 8.50288 24.4219 7.06463 24.3751 7.01101ZM28.9319 23.1439C28.8659 23.0119 25.735 21.4471 26.0265 18.4386C26.318 15.4301 28.3296 14.6038 28.3613 14.5144C28.3929 14.425 27.5404 13.4281 26.637 12.9235C25.9736 12.5681 25.2396 12.3643 24.4879 12.3268C24.3394 12.3226 23.8238 12.1961 22.7636 12.4863C22.0651 12.6774 20.4908 13.2961 20.0576 13.3209C19.6231 13.3456 18.3306 12.6031 16.9405 12.4065C16.0509 12.2346 15.1076 12.5866 14.4325 12.8575C13.7588 13.127 12.4773 13.8943 11.5808 15.9334C10.6843 17.9711 11.1531 21.1996 11.4886 22.2034C11.8241 23.2071 12.348 24.8489 13.239 26.0479C14.031 27.4009 15.0815 28.34 15.5201 28.659C15.9588 28.978 17.1963 29.1898 18.0543 28.7511C18.7445 28.3276 19.9903 28.0843 20.4825 28.1021C20.9734 28.12 21.9414 28.3139 22.9328 28.8433C23.7179 29.1141 24.4604 29.0014 25.2043 28.6989C25.9481 28.395 27.0248 27.2428 28.2815 24.9066C28.7582 23.8204 28.975 23.2328 28.9319 23.1439Z" fill="black"/>
<path d="M24.3751 7.01101C24.3284 6.95876 22.644 7.03163 21.1783 8.62251C19.7125 10.212 19.938 12.0353 19.971 12.082C20.004 12.1288 22.061 12.2016 23.3741 10.3523C24.6873 8.50288 24.4219 7.06463 24.3751 7.01101ZM28.9319 23.1439C28.8659 23.0119 25.735 21.4471 26.0265 18.4386C26.318 15.4301 28.3296 14.6038 28.3613 14.5144C28.3929 14.425 27.5404 13.4281 26.637 12.9235C25.9736 12.5681 25.2396 12.3643 24.4879 12.3268C24.3394 12.3226 23.8238 12.1961 22.7636 12.4863C22.0651 12.6774 20.4908 13.2961 20.0576 13.3209C19.6231 13.3456 18.3306 12.6031 16.9405 12.4065C16.0509 12.2346 15.1076 12.5866 14.4325 12.8575C13.7588 13.127 12.4773 13.8943 11.5808 15.9334C10.6843 17.9711 11.1531 21.1996 11.4886 22.2034C11.8241 23.2071 12.348 24.8489 13.239 26.0479C14.031 27.4009 15.0815 28.34 15.5201 28.659C15.9588 28.978 17.1963 29.1898 18.0543 28.7511C18.7445 28.3276 19.9903 28.0843 20.4825 28.1021C20.9734 28.12 21.9414 28.3139 22.9328 28.8433C23.7179 29.1141 24.4604 29.0014 25.2043 28.6989C25.9481 28.395 27.0248 27.2428 28.2815 24.9066C28.7582 23.8204 28.975 23.2328 28.9319 23.1439Z" fill="black"/>
</g>
<defs>
<filter id="filter0_d_1_385" x="0" y="0" width="40" height="40" filterUnits="userSpaceOnUse" color-interpolation-filters="sRGB">
<feFlood flood-opacity="0" result="BackgroundImageFix"/>
<feColorMatrix in="SourceAlpha" type="matrix" values="0 0 0 0 0 0 0 0 0 0 0 0 0 0 0 0 0 0 127 0" result="hardAlpha"/>
<feOffset dy="2"/>
<feGaussianBlur stdDeviation="2"/>
<feComposite in2="hardAlpha" operator="out"/>
<feColorMatrix type="matrix" values="0 0 0 0 0 0 0 0 0 0 0 0 0 0 0 0 0 0 0.05 0"/>
<feBlend mode="normal" in2="BackgroundImageFix" result="effect1_dropShadow_1_385"/>
<feBlend mode="normal" in="SourceGraphic" in2="effect1_dropShadow_1_385" result="shape"/>
</filter>
<clipPath id="clip0_1_385">
<rect width="22" height="22" fill="white" transform="translate(9 7)"/>
</clipPath>
</defs>
</svg>
