<svg width="40" height="40" viewBox="0 0 40 40" fill="none" xmlns="http://www.w3.org/2000/svg">
<g filter="url(#filter0_d_1_378)">
<circle cx="20" cy="18" r="16" fill="#FCFCFC"/>
</g>
<path d="M31.4397 15.715H30.4999V15.6666H19.9999V20.3333H26.5933C25.6314 23.0498 23.0467 24.9999 19.9999 24.9999C16.1342 24.9999 12.9999 21.8657 12.9999 17.9999C12.9999 14.1342 16.1342 10.9999 19.9999 10.9999C21.7843 10.9999 23.4078 11.6731 24.6438 12.7727L27.9438 9.47275C25.8601 7.53084 23.0729 6.33325 19.9999 6.33325C13.557 6.33325 8.33325 11.557 8.33325 17.9999C8.33325 24.4428 13.557 29.6666 19.9999 29.6666C26.4428 29.6666 31.6666 24.4428 31.6666 17.9999C31.6666 17.2177 31.5861 16.4541 31.4397 15.715Z" fill="#FFC107"/>
<path d="M9.67847 12.5697L13.5115 15.3808C14.5487 12.8129 17.0606 10.9999 20 10.9999C21.7844 10.9999 23.4078 11.6731 24.6439 12.7727L27.9438 9.47275C25.8601 7.53084 23.073 6.33325 20 6.33325C15.5188 6.33325 11.6326 8.86317 9.67847 12.5697Z" fill="#FF3D00"/>
<path d="M20 29.6666C23.0135 29.6666 25.7517 28.5133 27.8219 26.6379L24.2111 23.5824C23.0004 24.5031 21.521 25.0011 20 24.9999C16.9655 24.9999 14.3889 23.065 13.4183 20.3647L9.61377 23.296C11.5446 27.0742 15.4658 29.6666 20 29.6666Z" fill="#4CAF50"/>
<path d="M31.4397 15.7152H30.5V15.6667H20V20.3334H26.5934C26.1333 21.6263 25.3045 22.7561 24.2093 23.5832L24.2111 23.582L27.8219 26.6375C27.5664 26.8697 31.6667 23.8334 31.6667 18.0001C31.6667 17.2178 31.5862 16.4542 31.4397 15.7152Z" fill="#1976D2"/>
<defs>
<filter id="filter0_d_1_378" x="0" y="0" width="40" height="40" filterUnits="userSpaceOnUse" color-interpolation-filters="sRGB">
<feFlood flood-opacity="0" result="BackgroundImageFix"/>
<feColorMatrix in="SourceAlpha" type="matrix" values="0 0 0 0 0 0 0 0 0 0 0 0 0 0 0 0 0 0 127 0" result="hardAlpha"/>
<feOffset dy="2"/>
<feGaussianBlur stdDeviation="2"/>
<feComposite in2="hardAlpha" operator="out"/>
<feColorMatrix type="matrix" values="0 0 0 0 0 0 0 0 0 0 0 0 0 0 0 0 0 0 0.05 0"/>
<feBlend mode="normal" in2="BackgroundImageFix" result="effect1_dropShadow_1_378"/>
<feBlend mode="normal" in="SourceGraphic" in2="effect1_dropShadow_1_378" result="shape"/>
</filter>
</defs>
</svg>
